<mxfile host="Electron" agent="Mozilla/5.0 (X11; Linux x86_64) AppleWebKit/537.36 (KHTML, like Gecko) draw.io/28.1.2 Chrome/138.0.7204.243 Electron/37.4.0 Safari/537.36" version="28.1.2">
  <diagram name="Página-1" id="Gj2zUyQPATjFIZVH35gL">
    <mxGraphModel dx="1426" dy="843" grid="1" gridSize="10" guides="1" tooltips="1" connect="1" arrows="1" fold="1" page="1" pageScale="1" pageWidth="827" pageHeight="1169" math="0" shadow="0">
      <root>
        <mxCell id="0" />
        <mxCell id="1" parent="0" />
        <mxCell id="_0cO53vU2uUStuK1rOix-2" value="&lt;p style=&quot;margin:0px;margin-top:4px;text-align:center;&quot;&gt;&lt;b&gt;Newsletter&lt;/b&gt;&lt;/p&gt;&lt;hr size=&quot;1&quot; style=&quot;border-style:solid;&quot;&gt;&lt;p style=&quot;margin:0px;margin-left:4px;&quot;&gt;&lt;br&gt;&lt;/p&gt;&lt;hr size=&quot;1&quot; style=&quot;border-style:solid;&quot;&gt;&lt;p style=&quot;margin: 0px 0px 0px 4px;&quot;&gt;&lt;br&gt;&lt;/p&gt;" style="verticalAlign=top;align=left;overflow=fill;html=1;whiteSpace=wrap;" vertex="1" parent="1">
          <mxGeometry x="29" y="420" width="220" height="80" as="geometry" />
        </mxCell>
        <mxCell id="_0cO53vU2uUStuK1rOix-5" value="&lt;p style=&quot;margin:0px;margin-top:4px;text-align:center;&quot;&gt;&lt;i&gt;&amp;lt;&amp;lt;Interface&amp;gt;&amp;gt;&lt;/i&gt;&lt;br&gt;&lt;b&gt;Observer&lt;/b&gt;&lt;/p&gt;&lt;hr size=&quot;1&quot; style=&quot;border-style:solid;&quot;&gt;&lt;p style=&quot;margin:0px;margin-left:4px;&quot;&gt;+ update(message: String): void&lt;/p&gt;" style="verticalAlign=top;align=left;overflow=fill;html=1;whiteSpace=wrap;" vertex="1" parent="1">
          <mxGeometry x="443" y="90" width="190" height="70" as="geometry" />
        </mxCell>
        <mxCell id="_0cO53vU2uUStuK1rOix-6" value="&lt;p style=&quot;margin:0px;margin-top:4px;text-align:center;&quot;&gt;&lt;b&gt;Cliente&lt;/b&gt;&lt;/p&gt;&lt;hr size=&quot;1&quot; style=&quot;border-style:solid;&quot;&gt;&lt;p style=&quot;margin:0px;margin-left:4px;&quot;&gt;- subject: Subject&lt;/p&gt;&lt;hr size=&quot;1&quot; style=&quot;border-style:solid;&quot;&gt;&lt;p style=&quot;margin:0px;margin-left:4px;&quot;&gt;+ update(message: String): void&lt;/p&gt;" style="verticalAlign=top;align=left;overflow=fill;html=1;whiteSpace=wrap;" vertex="1" parent="1">
          <mxGeometry x="239" y="250" width="180" height="80" as="geometry" />
        </mxCell>
        <mxCell id="_0cO53vU2uUStuK1rOix-7" value="&lt;p style=&quot;margin:0px;margin-top:4px;text-align:center;&quot;&gt;&lt;b&gt;Fornecedor&lt;/b&gt;&lt;/p&gt;&lt;hr size=&quot;1&quot; style=&quot;border-style:solid;&quot;&gt;&lt;p style=&quot;margin:0px;margin-left:4px;&quot;&gt;- subject: Subject&lt;/p&gt;&lt;hr size=&quot;1&quot; style=&quot;border-style:solid;&quot;&gt;&lt;p style=&quot;margin:0px;margin-left:4px;&quot;&gt;+ update(message: String): void&lt;/p&gt;" style="verticalAlign=top;align=left;overflow=fill;html=1;whiteSpace=wrap;" vertex="1" parent="1">
          <mxGeometry x="429" y="250" width="184" height="80" as="geometry" />
        </mxCell>
        <mxCell id="_0cO53vU2uUStuK1rOix-8" value="&lt;p style=&quot;margin:0px;margin-top:4px;text-align:center;&quot;&gt;&lt;b&gt;Funcionario&lt;/b&gt;&lt;/p&gt;&lt;hr size=&quot;1&quot; style=&quot;border-style:solid;&quot;&gt;&lt;p style=&quot;margin:0px;margin-left:4px;&quot;&gt;- subject: Subject&lt;/p&gt;&lt;hr size=&quot;1&quot; style=&quot;border-style:solid;&quot;&gt;&lt;p style=&quot;margin:0px;margin-left:4px;&quot;&gt;+ update(message: String): void&lt;/p&gt;" style="verticalAlign=top;align=left;overflow=fill;html=1;whiteSpace=wrap;" vertex="1" parent="1">
          <mxGeometry x="619" y="250" width="180" height="80" as="geometry" />
        </mxCell>
        <mxCell id="_0cO53vU2uUStuK1rOix-14" value="" style="endArrow=block;dashed=1;endFill=0;endSize=12;html=1;rounded=0;exitX=0.5;exitY=0;exitDx=0;exitDy=0;entryX=0.5;entryY=1;entryDx=0;entryDy=0;" edge="1" parent="1" source="_0cO53vU2uUStuK1rOix-6" target="_0cO53vU2uUStuK1rOix-5">
          <mxGeometry width="160" relative="1" as="geometry">
            <mxPoint x="139" y="330" as="sourcePoint" />
            <mxPoint x="139" y="220" as="targetPoint" />
          </mxGeometry>
        </mxCell>
        <mxCell id="_0cO53vU2uUStuK1rOix-15" value="" style="endArrow=block;dashed=1;endFill=0;endSize=12;html=1;rounded=0;exitX=0.5;exitY=0;exitDx=0;exitDy=0;entryX=0.5;entryY=1;entryDx=0;entryDy=0;" edge="1" parent="1" source="_0cO53vU2uUStuK1rOix-7" target="_0cO53vU2uUStuK1rOix-5">
          <mxGeometry width="160" relative="1" as="geometry">
            <mxPoint x="589" y="570" as="sourcePoint" />
            <mxPoint x="844" y="410" as="targetPoint" />
          </mxGeometry>
        </mxCell>
        <mxCell id="_0cO53vU2uUStuK1rOix-16" value="" style="endArrow=block;dashed=1;endFill=0;endSize=12;html=1;rounded=0;exitX=0.5;exitY=0;exitDx=0;exitDy=0;entryX=0.5;entryY=1;entryDx=0;entryDy=0;" edge="1" parent="1" source="_0cO53vU2uUStuK1rOix-8" target="_0cO53vU2uUStuK1rOix-5">
          <mxGeometry width="160" relative="1" as="geometry">
            <mxPoint x="719" y="450" as="sourcePoint" />
            <mxPoint x="499" y="350" as="targetPoint" />
          </mxGeometry>
        </mxCell>
        <mxCell id="_0cO53vU2uUStuK1rOix-19" value="" style="html=1;verticalAlign=bottom;endArrow=block;curved=0;rounded=0;exitX=1;exitY=0.5;exitDx=0;exitDy=0;entryX=0;entryY=0.5;entryDx=0;entryDy=0;" edge="1" parent="1" source="_0cO53vU2uUStuK1rOix-28" target="_0cO53vU2uUStuK1rOix-5">
          <mxGeometry width="80" relative="1" as="geometry">
            <mxPoint x="249" y="115" as="sourcePoint" />
            <mxPoint x="541" y="130" as="targetPoint" />
          </mxGeometry>
        </mxCell>
        <mxCell id="_0cO53vU2uUStuK1rOix-24" value="" style="html=1;verticalAlign=bottom;endArrow=block;curved=0;rounded=0;exitX=0.5;exitY=1;exitDx=0;exitDy=0;entryX=0.75;entryY=0;entryDx=0;entryDy=0;" edge="1" parent="1" source="_0cO53vU2uUStuK1rOix-6" target="_0cO53vU2uUStuK1rOix-2">
          <mxGeometry width="80" relative="1" as="geometry">
            <mxPoint x="379" y="110" as="sourcePoint" />
            <mxPoint x="573" y="110" as="targetPoint" />
          </mxGeometry>
        </mxCell>
        <mxCell id="_0cO53vU2uUStuK1rOix-25" value="" style="html=1;verticalAlign=bottom;endArrow=block;curved=0;rounded=0;exitX=0.5;exitY=1;exitDx=0;exitDy=0;entryX=1;entryY=0;entryDx=0;entryDy=0;" edge="1" parent="1" source="_0cO53vU2uUStuK1rOix-7" target="_0cO53vU2uUStuK1rOix-2">
          <mxGeometry width="80" relative="1" as="geometry">
            <mxPoint x="386" y="360" as="sourcePoint" />
            <mxPoint x="279" y="420" as="targetPoint" />
          </mxGeometry>
        </mxCell>
        <mxCell id="_0cO53vU2uUStuK1rOix-26" value="" style="html=1;verticalAlign=bottom;endArrow=block;curved=0;rounded=0;exitX=0.5;exitY=1;exitDx=0;exitDy=0;entryX=1;entryY=0.25;entryDx=0;entryDy=0;" edge="1" parent="1" source="_0cO53vU2uUStuK1rOix-8" target="_0cO53vU2uUStuK1rOix-2">
          <mxGeometry width="80" relative="1" as="geometry">
            <mxPoint x="720" y="390" as="sourcePoint" />
            <mxPoint x="439" y="450" as="targetPoint" />
          </mxGeometry>
        </mxCell>
        <mxCell id="_0cO53vU2uUStuK1rOix-28" value="&lt;p style=&quot;margin:0px;margin-top:4px;text-align:center;&quot;&gt;&lt;i&gt;&amp;lt;&amp;lt;abstract&amp;gt;&amp;gt;&lt;/i&gt;&lt;br&gt;&lt;b&gt;&lt;i&gt;Subject&lt;/i&gt;&lt;/b&gt;&lt;/p&gt;&lt;hr size=&quot;1&quot; style=&quot;border-style:solid;&quot;&gt;&lt;p style=&quot;margin: 0px 0px 0px 4px;&quot;&gt;- observers: Observer[]&lt;/p&gt;&lt;p style=&quot;margin: 0px 0px 0px 4px;&quot;&gt;- messages: Object[]&lt;/p&gt;&lt;hr size=&quot;1&quot; style=&quot;border-style:solid;&quot;&gt;&lt;p style=&quot;margin: 0px 0px 0px 4px;&quot;&gt;+ registerObserver(o: Observer): void&lt;br&gt;+ removeObserver(o: Observer): void&lt;/p&gt;&lt;p style=&quot;margin: 0px 0px 0px 4px;&quot;&gt;+ notifyObservers(): void&lt;/p&gt;&lt;p style=&quot;margin: 0px 0px 0px 4px;&quot;&gt;+ addMessage(message: String): void&lt;/p&gt;" style="verticalAlign=top;align=left;overflow=fill;html=1;whiteSpace=wrap;" vertex="1" parent="1">
          <mxGeometry x="29" y="50" width="220" height="150" as="geometry" />
        </mxCell>
        <mxCell id="_0cO53vU2uUStuK1rOix-29" value="Extends" style="endArrow=block;endSize=16;endFill=0;html=1;rounded=0;exitX=0.5;exitY=0;exitDx=0;exitDy=0;entryX=0.5;entryY=1;entryDx=0;entryDy=0;" edge="1" parent="1" source="_0cO53vU2uUStuK1rOix-2" target="_0cO53vU2uUStuK1rOix-28">
          <mxGeometry width="160" relative="1" as="geometry">
            <mxPoint x="829" y="410" as="sourcePoint" />
            <mxPoint x="989" y="410" as="targetPoint" />
          </mxGeometry>
        </mxCell>
        <mxCell id="_0cO53vU2uUStuK1rOix-30" value="Estudo de caso" style="text;align=center;fontStyle=1;verticalAlign=middle;spacingLeft=3;spacingRight=3;strokeColor=none;rotatable=0;points=[[0,0.5],[1,0.5]];portConstraint=eastwest;html=1;" vertex="1" parent="1">
          <mxGeometry x="374" y="10" width="80" height="26" as="geometry" />
        </mxCell>
        <mxCell id="_0cO53vU2uUStuK1rOix-31" value="" style="line;strokeWidth=1;fillColor=none;align=left;verticalAlign=middle;spacingTop=-1;spacingLeft=3;spacingRight=3;rotatable=0;labelPosition=right;points=[];portConstraint=eastwest;strokeColor=inherit;" vertex="1" parent="1">
          <mxGeometry x="10" y="540" width="800" height="8" as="geometry" />
        </mxCell>
        <mxCell id="_0cO53vU2uUStuK1rOix-32" value="Modelo genérico" style="text;align=center;fontStyle=1;verticalAlign=middle;spacingLeft=3;spacingRight=3;strokeColor=none;rotatable=0;points=[[0,0.5],[1,0.5]];portConstraint=eastwest;html=1;" vertex="1" parent="1">
          <mxGeometry x="374" y="572" width="80" height="26" as="geometry" />
        </mxCell>
        <mxCell id="_0cO53vU2uUStuK1rOix-33" value="&lt;p style=&quot;margin:0px;margin-top:4px;text-align:center;&quot;&gt;&lt;b&gt;SubjectConcreto&lt;/b&gt;&lt;/p&gt;&lt;hr size=&quot;1&quot; style=&quot;border-style:solid;&quot;&gt;&lt;p style=&quot;margin:0px;margin-left:4px;&quot;&gt;&lt;br&gt;&lt;/p&gt;&lt;hr size=&quot;1&quot; style=&quot;border-style:solid;&quot;&gt;&lt;p style=&quot;margin: 0px 0px 0px 4px;&quot;&gt;&lt;br&gt;&lt;/p&gt;" style="verticalAlign=top;align=left;overflow=fill;html=1;whiteSpace=wrap;" vertex="1" parent="1">
          <mxGeometry x="29" y="980" width="220" height="80" as="geometry" />
        </mxCell>
        <mxCell id="_0cO53vU2uUStuK1rOix-34" value="&lt;p style=&quot;margin:0px;margin-top:4px;text-align:center;&quot;&gt;&lt;i&gt;&amp;lt;&amp;lt;Interface&amp;gt;&amp;gt;&lt;/i&gt;&lt;br&gt;&lt;b&gt;Observer&lt;/b&gt;&lt;/p&gt;&lt;hr size=&quot;1&quot; style=&quot;border-style:solid;&quot;&gt;&lt;p style=&quot;margin:0px;margin-left:4px;&quot;&gt;+ update(args: Object[]): void&lt;/p&gt;" style="verticalAlign=top;align=left;overflow=fill;html=1;whiteSpace=wrap;" vertex="1" parent="1">
          <mxGeometry x="443" y="640" width="167" height="70" as="geometry" />
        </mxCell>
        <mxCell id="_0cO53vU2uUStuK1rOix-35" value="&lt;p style=&quot;margin:0px;margin-top:4px;text-align:center;&quot;&gt;&lt;b&gt;ObserverConcretoA&lt;/b&gt;&lt;/p&gt;&lt;hr size=&quot;1&quot; style=&quot;border-style:solid;&quot;&gt;&lt;p style=&quot;margin:0px;margin-left:4px;&quot;&gt;- subject: Subject&lt;/p&gt;&lt;hr size=&quot;1&quot; style=&quot;border-style:solid;&quot;&gt;&lt;p style=&quot;margin:0px;margin-left:4px;&quot;&gt;+ update(args: Object[]): void&lt;/p&gt;" style="verticalAlign=top;align=left;overflow=fill;html=1;whiteSpace=wrap;" vertex="1" parent="1">
          <mxGeometry x="280" y="810" width="211" height="80" as="geometry" />
        </mxCell>
        <mxCell id="_0cO53vU2uUStuK1rOix-36" value="&lt;p style=&quot;margin:0px;margin-top:4px;text-align:center;&quot;&gt;&lt;b&gt;ObserverConcretoB&lt;/b&gt;&lt;/p&gt;&lt;hr size=&quot;1&quot; style=&quot;border-style:solid;&quot;&gt;&lt;p style=&quot;margin:0px;margin-left:4px;&quot;&gt;- subject: Subject&lt;/p&gt;&lt;hr size=&quot;1&quot; style=&quot;border-style:solid;&quot;&gt;&lt;p style=&quot;margin:0px;margin-left:4px;&quot;&gt;+ update(args: Object[]): void&lt;/p&gt;" style="verticalAlign=top;align=left;overflow=fill;html=1;whiteSpace=wrap;" vertex="1" parent="1">
          <mxGeometry x="521" y="810" width="211" height="80" as="geometry" />
        </mxCell>
        <mxCell id="_0cO53vU2uUStuK1rOix-38" value="" style="endArrow=block;dashed=1;endFill=0;endSize=12;html=1;rounded=0;exitX=0.5;exitY=0;exitDx=0;exitDy=0;entryX=0.5;entryY=1;entryDx=0;entryDy=0;" edge="1" parent="1" source="_0cO53vU2uUStuK1rOix-35" target="_0cO53vU2uUStuK1rOix-34">
          <mxGeometry width="160" relative="1" as="geometry">
            <mxPoint x="139" y="890" as="sourcePoint" />
            <mxPoint x="139" y="780" as="targetPoint" />
          </mxGeometry>
        </mxCell>
        <mxCell id="_0cO53vU2uUStuK1rOix-39" value="" style="endArrow=block;dashed=1;endFill=0;endSize=12;html=1;rounded=0;exitX=0.5;exitY=0;exitDx=0;exitDy=0;entryX=0.5;entryY=1;entryDx=0;entryDy=0;" edge="1" parent="1" source="_0cO53vU2uUStuK1rOix-36" target="_0cO53vU2uUStuK1rOix-34">
          <mxGeometry width="160" relative="1" as="geometry">
            <mxPoint x="589" y="1130" as="sourcePoint" />
            <mxPoint x="844" y="970" as="targetPoint" />
          </mxGeometry>
        </mxCell>
        <mxCell id="_0cO53vU2uUStuK1rOix-41" value="" style="html=1;verticalAlign=bottom;endArrow=block;curved=0;rounded=0;exitX=1;exitY=0.5;exitDx=0;exitDy=0;entryX=0;entryY=0.5;entryDx=0;entryDy=0;" edge="1" parent="1" source="_0cO53vU2uUStuK1rOix-45" target="_0cO53vU2uUStuK1rOix-34">
          <mxGeometry width="80" relative="1" as="geometry">
            <mxPoint x="249" y="675" as="sourcePoint" />
            <mxPoint x="541" y="690" as="targetPoint" />
          </mxGeometry>
        </mxCell>
        <mxCell id="_0cO53vU2uUStuK1rOix-42" value="" style="html=1;verticalAlign=bottom;endArrow=block;curved=0;rounded=0;exitX=0.5;exitY=1;exitDx=0;exitDy=0;entryX=0.75;entryY=0;entryDx=0;entryDy=0;" edge="1" parent="1" source="_0cO53vU2uUStuK1rOix-35" target="_0cO53vU2uUStuK1rOix-33">
          <mxGeometry width="80" relative="1" as="geometry">
            <mxPoint x="379" y="670" as="sourcePoint" />
            <mxPoint x="573" y="670" as="targetPoint" />
          </mxGeometry>
        </mxCell>
        <mxCell id="_0cO53vU2uUStuK1rOix-43" value="" style="html=1;verticalAlign=bottom;endArrow=block;curved=0;rounded=0;exitX=0.5;exitY=1;exitDx=0;exitDy=0;entryX=1;entryY=0;entryDx=0;entryDy=0;" edge="1" parent="1" source="_0cO53vU2uUStuK1rOix-36" target="_0cO53vU2uUStuK1rOix-33">
          <mxGeometry width="80" relative="1" as="geometry">
            <mxPoint x="386" y="920" as="sourcePoint" />
            <mxPoint x="279" y="980" as="targetPoint" />
          </mxGeometry>
        </mxCell>
        <mxCell id="_0cO53vU2uUStuK1rOix-45" value="&lt;p style=&quot;margin:0px;margin-top:4px;text-align:center;&quot;&gt;&lt;i&gt;&amp;lt;&amp;lt;abstract&amp;gt;&amp;gt;&lt;/i&gt;&lt;br&gt;&lt;b&gt;&lt;i&gt;Subject&lt;/i&gt;&lt;/b&gt;&lt;/p&gt;&lt;hr size=&quot;1&quot; style=&quot;border-style:solid;&quot;&gt;&lt;p style=&quot;margin: 0px 0px 0px 4px;&quot;&gt;- observers: Observer[]&lt;br&gt;&lt;/p&gt;&lt;hr size=&quot;1&quot; style=&quot;border-style:solid;&quot;&gt;&lt;p style=&quot;margin: 0px 0px 0px 4px;&quot;&gt;+ registerObserver(o: Observer): void&lt;br&gt;+ removeObserver(o: Observer): void&lt;/p&gt;&lt;p style=&quot;margin: 0px 0px 0px 4px;&quot;&gt;+ notifyObservers(): void&lt;/p&gt;" style="verticalAlign=top;align=left;overflow=fill;html=1;whiteSpace=wrap;" vertex="1" parent="1">
          <mxGeometry x="29" y="610" width="220" height="130" as="geometry" />
        </mxCell>
        <mxCell id="_0cO53vU2uUStuK1rOix-46" value="Extends" style="endArrow=block;endSize=16;endFill=0;html=1;rounded=0;exitX=0.5;exitY=0;exitDx=0;exitDy=0;entryX=0.5;entryY=1;entryDx=0;entryDy=0;" edge="1" parent="1" source="_0cO53vU2uUStuK1rOix-33" target="_0cO53vU2uUStuK1rOix-45">
          <mxGeometry width="160" relative="1" as="geometry">
            <mxPoint x="829" y="970" as="sourcePoint" />
            <mxPoint x="989" y="970" as="targetPoint" />
          </mxGeometry>
        </mxCell>
      </root>
    </mxGraphModel>
  </diagram>
</mxfile>
